#N canvas 816 114 450 300 12;
#X declare -lib mrpeach;
#N canvas 0 50 450 300 osc 1;
#X obj 151 45 declare -lib mrpeach;
#X obj 44 88 mrpeach/udpreceive 9129;
#X obj 44 113 mrpeach/unpackOSC;
#X obj 44 136 outlet;
#X connect 1 0 2 0;
#X connect 2 0 3 0;
#X restore 10 7 pd osc;
#X obj 10 29 s oscmsgs;
#X obj 14 59 r oscmsgs;
#X obj 14 104 unpack f f f;
#X floatatom 14 126 5 0 0 0 - - -;
#X floatatom 54 126 5 0 0 0 - - -;
#X obj 11 448 *~;
#X obj 44 381 vsl 10 64 0 1 0 0 empty empty empty 0 -9 0 10 -262144
-1 -1 0 1;
#X obj 12 471 dac~;
#X obj 11 310 phasor~;
#X obj 14 81 route /left_wrist;
#X obj 54 149 clip 0 360;
#X obj 13 353 lop~;
#X obj 14 151 * 8;
#X obj 54 173 expr (360 - $f1)/360*5;
#X obj 54 196 int;
#X msg 92 244 40;
#X msg 112 267 43;
#X obj 92 220 route 0 1 2 3 4;
#X msg 132 244 45;
#X msg 153 267 47;
#X msg 173 244 50;
#X obj 11 286 mtof;
#X connect 0 0 1 0;
#X connect 2 0 10 0;
#X connect 3 0 4 0;
#X connect 3 1 5 0;
#X connect 4 0 13 0;
#X connect 5 0 11 0;
#X connect 6 0 8 0;
#X connect 6 0 8 1;
#X connect 7 0 6 1;
#X connect 9 0 12 0;
#X connect 10 0 3 0;
#X connect 11 0 14 0;
#X connect 12 0 6 0;
#X connect 13 0 12 1;
#X connect 14 0 15 0;
#X connect 15 0 18 0;
#X connect 16 0 22 0;
#X connect 17 0 22 0;
#X connect 18 0 16 0;
#X connect 18 1 17 0;
#X connect 18 2 19 0;
#X connect 18 3 20 0;
#X connect 18 4 21 0;
#X connect 19 0 22 0;
#X connect 20 0 22 0;
#X connect 21 0 22 0;
#X connect 22 0 9 0;
