#N canvas 727 337 450 300 10;
#X obj -30 -30 preset_hub k12 1 %hidden%;
#X obj 70 40 inlet~;
#X obj 190 40 inlet~;
#X obj 70 120 *~;
#X obj 240 40 inlet~;
#X obj 240 65 clip~ 0 1;
#X obj 87 98 expr~ 1 - \\$v1;
#X obj 70 157 +~;
#X obj 190 120 *~;
#X obj 70 182 outlet~;
#X connect 1 0 3 0;
#X connect 2 0 8 0;
#X connect 3 0 7 0;
#X connect 4 0 5 0;
#X connect 5 0 6 0;
#X connect 5 0 8 1;
#X connect 6 0 3 1;
#X connect 7 0 9 0;
#X connect 8 0 7 1;
