#N canvas 150 253 346 421 10;
#X declare -lib mrpeach;
#X obj -30 -30 preset_hub k12 1 %hidden%;
#X obj 10 230 drywet;
#X obj 100 210 hsl 128 15 0 1 0 0 empty empty empty -2 -8 0 10 #fcfcfc
#000000 #000000 0 1 0 1;
#X obj 26 305 freeverb~;
#X obj 88 310 hsl 128 15 0 1 0 0 empty empty empty -2 -8 0 10 #fcfcfc
#000000 #000000 0 1 0 1;
#X obj 26 334 *~;
#X obj 10 364 +~;
#X obj 10 136 drywet;
#X obj 96 114 hsl 128 15 0 0.5 0 0 empty empty empty -2 -8 0 10 #fcfcfc
#000000 #000000 0 1 0 1;
#X obj 83 72 tgl 15 0 empty empty empty 17 7 0 10 #fcfcfc #000000 #000000
1 1 1;
#N canvas 857 192 780 610 random-harmonics 0;
#X obj 20 10 inlet;
#X obj 20 280 line~;
#X obj 20 40 metro 100;
#X obj 20 303 outlet~;
#X floatatom 400 136 5 0 0 0 - - - 0 0 1, f 5;
#X msg 400 215 all 100 1 1 1;
#X obj 410 196 bng 15 250 50 0 empty empty empty 17 7 0 10 #fcfcfc
#000000 #000000 1;
#X obj 400 245 list_sum;
#X msg 400 170 set all \$1 1 1 1;
#X msg 510 215 100 1 1 1;
#X obj 520 196 bng 15 250 50 0 empty empty empty 17 7 0 10 #fcfcfc
#000000 #000000 1;
#X msg 510 170 set \$1 1 1 1;
#X obj 510 240 unpack f f f f;
#X obj 400 300 expr \\$f2 / \\$f1;
#X floatatom 400 323 5 0 0 0 - - - 0 0 1, f 5;
#X obj 445 272 bng 15 250 50 0 empty empty empty 17 7 0 10 #fcfcfc
#000000 #000000 1;
#X obj 450 330 expr \\$f2 / \\$f1;
#X floatatom 450 353 5 0 0 0 - - - 0 0 1, f 5;
#X obj 495 302 bng 15 250 50 0 empty empty empty 17 7 0 10 #fcfcfc
#000000 #000000 1;
#X obj 500 360 expr \\$f2 / \\$f1;
#X floatatom 500 383 5 0 0 0 - - - 0 0 1, f 5;
#X obj 545 332 bng 15 250 50 0 empty empty empty 17 7 0 10 #fcfcfc
#000000 #000000 1;
#X obj 400 380 +;
#X floatatom 400 410 5 0 0 0 - - - 0 0 1, f 5;
#X obj 400 440 +;
#X floatatom 400 470 5 0 0 0 - - - 0 0 1, f 5;
#X obj 20 160 moses;
#X obj 20 230 bng 15 250 50 0 empty empty empty 17 7 0 10 #fcfcfc #000000
#000000 1;
#X msg 20 250 0.5 5;
#X obj 20 65 bng 15 250 50 0 empty empty empty 17 7 0 10 #fcfcfc #000000
#000000 1;
#X obj 47 182 moses;
#X obj 60 230 bng 15 250 50 0 empty empty empty 17 7 0 10 #fcfcfc #000000
#000000 1;
#X msg 60 250 2 5;
#X obj 74 204 moses;
#X obj 360 350 s \$0-low;
#X obj 340 440 s \$0-mid;
#X obj 340 500 s \$0-high;
#X obj 47 139 r \$0-low;
#X obj 74 161 r \$0-mid;
#X obj 101 182 r \$0-high;
#X obj 90 230 bng 15 250 50 0 empty empty empty 17 7 0 10 #fcfcfc #000000
#000000 1;
#X obj 130 230 bng 15 250 50 0 empty empty empty 17 7 0 10 #fcfcfc
#000000 #000000 1;
#X msg 130 250 4 5;
#X msg 90 250 3 5;
#X obj 20 95 random 10000, f 13;
#X obj 20 120 / 10000;
#X obj 400 110 expr 100 - \\$f1;
#X floatatom 400 85 5 0 0 0 - - - 0 0 1, f 5;
#X obj 400 60 * 100;
#X obj 400 39 clip 0 1;
#X obj 400 10 inlet;
#X connect 0 0 2 0;
#X connect 1 0 3 0;
#X connect 2 0 29 0;
#X connect 4 0 8 0;
#X connect 4 0 11 0;
#X connect 5 0 7 0;
#X connect 6 0 5 0;
#X connect 7 0 13 0;
#X connect 7 0 16 0;
#X connect 7 0 19 0;
#X connect 8 0 5 0;
#X connect 8 0 6 0;
#X connect 9 0 12 0;
#X connect 10 0 9 0;
#X connect 11 0 9 0;
#X connect 11 0 10 0;
#X connect 12 0 13 1;
#X connect 12 0 15 0;
#X connect 12 1 16 1;
#X connect 12 1 18 0;
#X connect 12 2 19 1;
#X connect 12 2 21 0;
#X connect 13 0 14 0;
#X connect 14 0 22 0;
#X connect 14 0 34 0;
#X connect 15 0 13 0;
#X connect 16 0 17 0;
#X connect 17 0 22 1;
#X connect 18 0 16 0;
#X connect 19 0 20 0;
#X connect 20 0 24 1;
#X connect 21 0 19 0;
#X connect 22 0 23 0;
#X connect 23 0 24 0;
#X connect 23 0 35 0;
#X connect 24 0 25 0;
#X connect 25 0 36 0;
#X connect 26 0 27 0;
#X connect 26 1 30 0;
#X connect 27 0 28 0;
#X connect 28 0 1 0;
#X connect 29 0 44 0;
#X connect 30 0 31 0;
#X connect 30 1 33 0;
#X connect 31 0 32 0;
#X connect 32 0 1 0;
#X connect 33 0 40 0;
#X connect 33 1 41 0;
#X connect 37 0 26 1;
#X connect 38 0 30 1;
#X connect 39 0 33 1;
#X connect 40 0 43 0;
#X connect 41 0 42 0;
#X connect 42 0 1 0;
#X connect 43 0 1 0;
#X connect 44 0 45 0;
#X connect 45 0 26 0;
#X connect 46 0 4 0;
#X connect 47 0 46 0;
#X connect 48 0 47 0;
#X connect 49 0 48 0;
#X connect 50 0 49 0;
#X restore 83 92 pd random-harmonics;
#N canvas 166 356 803 300 osc-receive 0;
#N canvas 431 302 450 300 osc 0;
#X obj 151 45 declare -lib mrpeach;
#X obj 44 113 mrpeach/unpackOSC;
#X obj 44 136 outlet;
#X obj 44 88 mrpeach/udpreceive 12000;
#X connect 1 0 2 0;
#X connect 3 0 1 0;
#X restore 10 -42 pd osc;
#X obj 10 -20 s \$0-oscmsgs;
#X obj 14 13 r \$0-oscmsgs;
#X obj 14 35 route /wek/outputs;
#X obj 14 60 unpack f f f f f;
#X obj 14 110 s \$0-o1;
#X obj 126 110 s \$0-o2;
#X obj 239 110 s \$0-o3;
#X obj 349 110 s \$0-o4;
#X obj 460 110 s \$0-o5;
#X connect 0 0 1 0;
#X connect 2 0 3 0;
#X connect 3 0 4 0;
#X connect 4 0 5 0;
#X connect 4 1 6 0;
#X connect 4 2 7 0;
#X connect 4 3 8 0;
#X connect 4 4 9 0;
#X restore 76 24 pd osc-receive;
#X obj 196 64 hsl 128 15 0 1 0 0 empty empty empty -2 -8 0 10 #fcfcfc
#000000 #000000 0 1 0 1;
#X obj 66 164 tgl 15 0 empty empty empty 17 7 0 10 #fcfcfc #000000
#000000 1 1 1;
#N canvas 857 192 780 610 random-harmonics 0;
#X obj 20 10 inlet;
#X obj 20 280 line~;
#X obj 20 40 metro 100;
#X obj 20 303 outlet~;
#X floatatom 400 136 5 0 0 0 - - - 0 0 1, f 5;
#X msg 400 215 all 100 1 1 1;
#X obj 410 196 bng 15 250 50 0 empty empty empty 17 7 0 10 #fcfcfc
#000000 #000000 1;
#X obj 400 245 list_sum;
#X msg 400 170 set all \$1 1 1 1;
#X msg 510 215 100 1 1 1;
#X obj 520 196 bng 15 250 50 0 empty empty empty 17 7 0 10 #fcfcfc
#000000 #000000 1;
#X msg 510 170 set \$1 1 1 1;
#X obj 510 240 unpack f f f f;
#X obj 400 300 expr \\$f2 / \\$f1;
#X floatatom 400 323 5 0 0 0 - - - 0 0 1, f 5;
#X obj 445 272 bng 15 250 50 0 empty empty empty 17 7 0 10 #fcfcfc
#000000 #000000 1;
#X obj 450 330 expr \\$f2 / \\$f1;
#X floatatom 450 353 5 0 0 0 - - - 0 0 1, f 5;
#X obj 495 302 bng 15 250 50 0 empty empty empty 17 7 0 10 #fcfcfc
#000000 #000000 1;
#X obj 500 360 expr \\$f2 / \\$f1;
#X floatatom 500 383 5 0 0 0 - - - 0 0 1, f 5;
#X obj 545 332 bng 15 250 50 0 empty empty empty 17 7 0 10 #fcfcfc
#000000 #000000 1;
#X obj 400 380 +;
#X floatatom 400 410 5 0 0 0 - - - 0 0 1, f 5;
#X obj 400 440 +;
#X floatatom 400 470 5 0 0 0 - - - 0 0 1, f 5;
#X obj 20 160 moses;
#X obj 20 230 bng 15 250 50 0 empty empty empty 17 7 0 10 #fcfcfc #000000
#000000 1;
#X msg 20 250 0.5 5;
#X obj 20 65 bng 15 250 50 0 empty empty empty 17 7 0 10 #fcfcfc #000000
#000000 1;
#X obj 47 182 moses;
#X obj 60 230 bng 15 250 50 0 empty empty empty 17 7 0 10 #fcfcfc #000000
#000000 1;
#X msg 60 250 2 5;
#X obj 74 204 moses;
#X obj 360 350 s \$0-low;
#X obj 340 440 s \$0-mid;
#X obj 340 500 s \$0-high;
#X obj 47 139 r \$0-low;
#X obj 74 161 r \$0-mid;
#X obj 101 182 r \$0-high;
#X obj 90 230 bng 15 250 50 0 empty empty empty 17 7 0 10 #fcfcfc #000000
#000000 1;
#X obj 130 230 bng 15 250 50 0 empty empty empty 17 7 0 10 #fcfcfc
#000000 #000000 1;
#X msg 130 250 4 5;
#X msg 90 250 3 5;
#X obj 20 95 random 10000, f 13;
#X obj 20 120 / 10000;
#X obj 400 110 expr 100 - \\$f1;
#X floatatom 400 85 5 0 0 0 - - - 0 0 1, f 5;
#X obj 400 60 * 100;
#X obj 400 39 clip 0 1;
#X obj 400 10 inlet;
#X connect 0 0 2 0;
#X connect 1 0 3 0;
#X connect 2 0 29 0;
#X connect 4 0 8 0;
#X connect 4 0 11 0;
#X connect 5 0 7 0;
#X connect 6 0 5 0;
#X connect 7 0 13 0;
#X connect 7 0 16 0;
#X connect 7 0 19 0;
#X connect 8 0 5 0;
#X connect 8 0 6 0;
#X connect 9 0 12 0;
#X connect 10 0 9 0;
#X connect 11 0 9 0;
#X connect 11 0 10 0;
#X connect 12 0 13 1;
#X connect 12 0 15 0;
#X connect 12 1 16 1;
#X connect 12 1 18 0;
#X connect 12 2 19 1;
#X connect 12 2 21 0;
#X connect 13 0 14 0;
#X connect 14 0 22 0;
#X connect 14 0 34 0;
#X connect 15 0 13 0;
#X connect 16 0 17 0;
#X connect 17 0 22 1;
#X connect 18 0 16 0;
#X connect 19 0 20 0;
#X connect 20 0 24 1;
#X connect 21 0 19 0;
#X connect 22 0 23 0;
#X connect 23 0 24 0;
#X connect 23 0 35 0;
#X connect 24 0 25 0;
#X connect 25 0 36 0;
#X connect 26 0 27 0;
#X connect 26 1 30 0;
#X connect 27 0 28 0;
#X connect 28 0 1 0;
#X connect 29 0 44 0;
#X connect 30 0 31 0;
#X connect 30 1 33 0;
#X connect 31 0 32 0;
#X connect 32 0 1 0;
#X connect 33 0 40 0;
#X connect 33 1 41 0;
#X connect 37 0 26 1;
#X connect 38 0 30 1;
#X connect 39 0 33 1;
#X connect 40 0 43 0;
#X connect 41 0 42 0;
#X connect 42 0 1 0;
#X connect 43 0 1 0;
#X connect 44 0 45 0;
#X connect 45 0 26 0;
#X connect 46 0 4 0;
#X connect 47 0 46 0;
#X connect 48 0 47 0;
#X connect 49 0 48 0;
#X connect 50 0 49 0;
#X restore 66 184 pd random-harmonics;
#X obj 196 44 r \$0-o2;
#X obj 106 274 r \$0-o4;
#X msg 36 274 roomsize 1;
#X obj 83 50 loadbang;
#X obj 66 144 loadbang;
#X obj 36 254 loadbang;
#X obj 26 114 panmod;
#X obj 26 204 weirdtable;
#X obj 206 94 r \$0-o1;
#X obj 196 184 r \$0-o3;
#X obj 10 40 inlet~;
#X obj 10 390 outlet~;
#X obj 246 44 loadbang;
#X connect 1 0 3 0;
#X connect 1 0 6 0;
#X connect 2 0 1 2;
#X connect 3 0 5 0;
#X connect 4 0 5 1;
#X connect 5 0 6 1;
#X connect 6 0 26 0;
#X connect 7 0 1 0;
#X connect 7 0 22 0;
#X connect 8 0 7 2;
#X connect 9 0 10 0;
#X connect 10 0 21 1;
#X connect 12 0 10 1;
#X connect 12 0 14 1;
#X connect 13 0 14 0;
#X connect 14 0 22 1;
#X connect 15 0 12 0;
#X connect 16 0 4 0;
#X connect 17 0 3 0;
#X connect 18 0 9 0;
#X connect 19 0 13 0;
#X connect 20 0 17 0;
#X connect 21 0 7 1;
#X connect 22 0 1 1;
#X connect 23 0 8 0;
#X connect 24 0 2 0;
#X connect 25 0 7 0;
#X connect 25 0 21 0;
#X connect 27 0 12 0;
