#N canvas 510 98 544 439 10;
#X obj -30 -30 preset_hub k12 1 %hidden%;
#X obj 130 190 osc~;
#X obj 113 272 *~;
#X obj 130 220 clip~ -1 0;
#X obj 130 250 expr~ 1 + \\$v1;
#X obj 130 70 sigmund~ -hop 4096 pitch;
#X obj 130 135 mtof~;
#X obj 130 110 spigot;
#X obj 150 90 > 0;
#X obj 113 40 inlet~;
#X obj 113 294 outlet~;
#X obj 310 40 inlet~;
#X obj 130 160 expr~ \\$v1 * \\$v2;
#X connect 1 0 3 0;
#X connect 2 0 10 0;
#X connect 3 0 4 0;
#X connect 4 0 2 1;
#X connect 5 0 8 0;
#X connect 5 0 7 0;
#X connect 6 0 12 0;
#X connect 7 0 6 0;
#X connect 8 0 7 1;
#X connect 9 0 5 0;
#X connect 9 0 2 0;
#X connect 11 0 12 1;
#X connect 12 0 1 0;
