#N canvas 773 154 877 680 12;
#X declare -lib mrpeach;
#N canvas 727 337 450 300 osc 1;
#X obj 151 45 declare -lib mrpeach;
#X obj 44 88 mrpeach/udpreceive 9129;
#X obj 44 113 mrpeach/unpackOSC;
#X obj 44 166 outlet;
#X obj 44 140 mrpeach/routeOSC /posesynth;
#X connect 1 0 2 0;
#X connect 2 0 4 0;
#X connect 4 0 3 0;
#X restore 10 7 pd osc;
#X obj 14 104 unpack f f f;
#X floatatom 14 126 5 0 0 0 - - - 0 0 1, f 5;
#X floatatom 67 126 5 0 0 0 - - - 0 0 1, f 5;
#X obj 14 81 route /left_wrist;
#X obj 157 81 route /left_shoulder;
#X obj 157 105 unpack f f f;
#X floatatom 157 127 5 0 0 0 - - - 0 0 1, f 5;
#X floatatom 210 127 5 0 0 0 - - - 0 0 1, f 5;
#N canvas 600 130 450 669 kick 0;
#X obj 39 65 mtof;
#X floatatom 39 44 5 0 0 0 - - - 0 0 1, f 5;
#X obj 39 137 *~;
#X obj 58 114 pow~;
#X obj 59 91 sig~ 2;
#X obj 124 47 line~;
#X obj 39 166 phasor~;
#X obj 124 2 r \$0-kick-bng;
#X obj 94 122 r \$0-kick-bng;
#X msg 85 144 0;
#X obj 38 189 -~ 0.25;
#X obj 38 212 cos~;
#X obj 38 256 *~;
#X obj 106 234 line~;
#X obj 106 188 r \$0-kick-bng;
#X obj 38 302 expr~ tanh($v1);
#X msg 39 22 28;
#X msg 124 24 1 \, 0 80;
#X obj 38 279 *~ 3;
#X obj 38 335 *~ 0.8;
#X msg 106 211 1 \, 0 100;
#X obj 124 69 pow~ 4;
#X obj 123 92 *~ 4.6;
#X obj 38 363 throw~ \$0-perc;
#X connect 0 0 2 0;
#X connect 1 0 0 0;
#X connect 2 0 6 0;
#X connect 3 0 2 1;
#X connect 4 0 3 0;
#X connect 5 0 21 0;
#X connect 6 0 10 0;
#X connect 7 0 17 0;
#X connect 7 0 16 0;
#X connect 8 0 9 0;
#X connect 9 0 6 1;
#X connect 10 0 11 0;
#X connect 11 0 12 0;
#X connect 12 0 18 0;
#X connect 13 0 12 1;
#X connect 14 0 20 0;
#X connect 15 0 19 0;
#X connect 16 0 1 0;
#X connect 17 0 5 0;
#X connect 18 0 15 0;
#X connect 19 0 23 0;
#X connect 20 0 13 0;
#X connect 21 0 22 0;
#X connect 22 0 3 1;
#X restore 15 384 pd kick;
#X obj 208 517 catch~ \$0-M;
#X obj 208 641 *~;
#X obj 241 574 vsl 10 64 0 1 0 0 empty empty empty 0 -9 0 10 #fcfcfc
#000000 #000000 5040 1 0 1;
#X obj 209 664 dac~;
#X obj 72 386 bng 15 250 50 0 \$0-kick-bng empty kick 17 7 0 10 #fcfcfc
#000000 #000000 1;
#N canvas 0 50 256 113 click 0;
#X obj 19 19 inlet;
#X obj 64 19 inlet;
#X obj 64 43 expr 15000 / \\$f1;
#X obj 19 44 t f b;
#X obj 19 68 metro;
#X obj 19 114 i;
#X msg 37 91 0;
#X obj 52 114 + 1;
#X obj 19 137 outlet;
#X obj 65 66 s \$0-millis;
#X connect 0 0 3 0;
#X connect 1 0 2 0;
#X connect 2 0 4 1;
#X connect 2 0 9 0;
#X connect 3 0 4 0;
#X connect 3 1 6 0;
#X connect 4 0 5 0;
#X connect 5 0 7 0;
#X connect 5 0 8 0;
#X connect 6 0 5 0;
#X connect 7 0 5 1;
#X restore 135 453 pd click;
#X obj 135 365 tgl 15 0 empty empty empty 17 7 0 10 #fcfcfc #000000
#000000 0 1 1;
#X obj 188 408 loadbang;
#X obj 10 29 s \$0-oscmsgs;
#X obj 14 59 r \$0-oscmsgs;
#X obj 135 476 s \$0-click;
#N canvas 0 50 450 380 hihat 0;
#X obj 18 9 r \$0-hihat-bng;
#X msg 18 31 seed 914;
#X obj 18 54 noise~;
#X obj 19 107 hip~;
#X obj 58 107 bp~;
#X obj 19 198 +~;
#X obj 19 222 /~ 2;
#X obj 93 58 loadbang;
#X obj 20 265 expr~ tanh($v1);
#X obj 20 159 *~;
#X obj 182 136 clip~ 0 1;
#X obj 182 112 *~ 1;
#X obj 181 37 r \$0-hihat-bng;
#X obj 181 87 vline~;
#X obj 289 136 clip~ 0 1;
#X obj 289 112 *~ 1;
#X obj 288 37 r \$0-hihat-bng;
#X obj 288 87 vline~;
#X msg 288 61 1 \, 0 20;
#X obj 58 166 *~;
#X msg 181 61 1 \, 0 60;
#X msg 125 80 3;
#X msg 44 80 100;
#X msg 85 80 4000;
#X obj 19 243 *~ 4;
#X obj 20 287 *~ 0.3;
#X obj 20 309 throw~ \$0-perc;
#X connect 0 0 1 0;
#X connect 1 0 2 0;
#X connect 2 0 3 0;
#X connect 2 0 4 0;
#X connect 3 0 9 0;
#X connect 4 0 19 0;
#X connect 5 0 6 0;
#X connect 6 0 24 0;
#X connect 7 0 22 0;
#X connect 7 0 23 0;
#X connect 7 0 21 0;
#X connect 8 0 25 0;
#X connect 9 0 5 0;
#X connect 10 0 9 1;
#X connect 11 0 10 0;
#X connect 12 0 20 0;
#X connect 13 0 11 0;
#X connect 14 0 19 1;
#X connect 15 0 14 0;
#X connect 16 0 18 0;
#X connect 17 0 15 0;
#X connect 18 0 17 0;
#X connect 19 0 5 1;
#X connect 20 0 13 0;
#X connect 21 0 4 2;
#X connect 22 0 3 1;
#X connect 23 0 4 1;
#X connect 24 0 8 0;
#X connect 25 0 26 0;
#X restore 15 407 pd hihat;
#X obj 79 409 bng 15 250 50 0 \$0-hihat-bng empty hihat 17 7 0 10 #fcfcfc
#000000 #000000 1;
#N canvas 206 1 417 545 synth 0;
#X obj 10 71 -~ 1;
#X obj 123 71 +~ 1;
#X obj 67 39 mtof;
#X obj 68 162 /~ 3;
#X obj 69 272 *~;
#X obj 69 507 expr~ tanh($v1);
#X obj 69 578 throw~ \$0-M;
#X obj 103 204 pow~;
#X obj 104 181 sig~ 2;
#X obj 206 206 *~ 1;
#X obj 103 226 -~ 1;
#X obj 103 248 clip~ 0 1;
#X obj 207 183 pow~ 4;
#X obj 69 348 +~;
#X obj 109 371 lop~ 3000;
#X obj 110 394 delwrite~ \$0-synth-del 10000;
#X obj 241 296 delread~ \$0-synth-del;
#X floatatom 242 271 5 0 0 0 - - - 0 0 1, f 5;
#X obj 242 320 *~ 0.5;
#X obj 69 294 lop~ 6000;
#X msg 207 114 1 5;
#X obj 242 227 r \$0-millis;
#X obj 242 249 * 2;
#X msg 243 136 0 600;
#X obj 207 85 bng 15 250 50 0 empty empty empty 17 7 0 10 #fcfcfc #000000
#000000 1;
#X obj 207 159 line~;
#X obj 243 114 del 50;
#X obj 10 93 osc~;
#X obj 123 93 osc~;
#X obj 69 317 hip~ 50;
#X obj 67 93 phasor~;
#X obj 67 12 r \$0-synth;
#X obj 68 133 *~;
#X obj 198 53 hsl 128 15 0 1 0 0 empty empty empty -2 -8 0 10 #fcfcfc
#000000 #000000 0 1 0 1;
#X obj 70 531 *~ 0.6;
#X obj 70 555 *~;
#X obj 121 531 r \$0-synth-vol;
#X obj 195 28 r \$0-synth-dist;
#X obj 69 484 *~ 3;
#X obj 94 418 r \$0-synth-dist;
#X obj 94 440 * 3;
#X obj 94 462 + 3;
#X obj 264 448 vsl 15 128 0 1 0 0 empty empty empty 0 -9 0 10 #fcfcfc
#000000 #000000 0 1 0 1;
#X connect 0 0 27 0;
#X connect 1 0 28 0;
#X connect 2 0 0 0;
#X connect 2 0 1 0;
#X connect 2 0 30 0;
#X connect 3 0 4 0;
#X connect 4 0 19 0;
#X connect 5 0 34 0;
#X connect 7 0 10 0;
#X connect 8 0 7 0;
#X connect 9 0 7 1;
#X connect 10 0 11 0;
#X connect 11 0 4 1;
#X connect 12 0 9 0;
#X connect 13 0 14 0;
#X connect 13 0 38 0;
#X connect 14 0 15 0;
#X connect 16 0 18 0;
#X connect 17 0 16 0;
#X connect 18 0 13 1;
#X connect 19 0 29 0;
#X connect 20 0 25 0;
#X connect 21 0 22 0;
#X connect 22 0 17 0;
#X connect 23 0 25 0;
#X connect 24 0 20 0;
#X connect 24 0 26 0;
#X connect 25 0 12 0;
#X connect 26 0 23 0;
#X connect 27 0 3 0;
#X connect 28 0 3 0;
#X connect 29 0 13 0;
#X connect 30 0 32 0;
#X connect 31 0 2 0;
#X connect 31 0 24 0;
#X connect 32 0 3 0;
#X connect 33 0 32 1;
#X connect 34 0 35 0;
#X connect 35 0 6 0;
#X connect 36 0 35 1;
#X connect 37 0 33 0;
#X connect 38 0 5 0;
#X connect 39 0 40 0;
#X connect 40 0 41 0;
#X connect 41 0 38 1;
#X connect 42 0 35 1;
#X restore 15 431 pd synth;
#N canvas 159 189 980 476 sequences 0;
#X obj 9 16 r \$0-click;
#X obj 9 40 % 32;
#X obj 42 63 t b f;
#X obj 74 86 sel 0;
#X obj 42 132 random 101;
#X obj 42 258 sel 1;
#X obj 42 300 s \$0-kick-bng;
#X obj 9 235 % 8;
#X msg 74 109 seed 273;
#X obj 166 17 r \$0-click;
#X obj 166 41 % 32;
#X obj 166 64 t b f;
#X obj 198 87 sel 0;
#X obj 166 133 random 101;
#X obj 166 259 sel 1;
#X obj 166 301 s \$0-hihat-bng;
#X msg 198 110 seed 2.49234e+06;
#X obj 351 214 bng 15 250 50 0 empty empty empty 17 7 0 10 #fcfcfc
#000000 #000000 1;
#X obj 368 214 bng 15 250 50 0 empty empty empty 17 7 0 10 #fcfcfc
#000000 #000000 1;
#X obj 386 214 bng 15 250 50 0 empty empty empty 17 7 0 10 #fcfcfc
#000000 #000000 1;
#X obj 403 214 bng 15 250 50 0 empty empty empty 17 7 0 10 #fcfcfc
#000000 #000000 1;
#X obj 421 214 bng 15 250 50 0 empty empty empty 17 7 0 10 #fcfcfc
#000000 #000000 1;
#X msg 351 232 62;
#X msg 368 257 65;
#X msg 386 233 69;
#X msg 403 257 74;
#X msg 421 233 50;
#X obj 351 288 f;
#X obj 351 190 sel 0 1 2 3 4;
#X obj 351 16 r \$0-click;
#X obj 351 40 / 32;
#X obj 351 311 s \$0-synth;
#X obj 351 63 int;
#X obj 351 85 % 4;
#X obj 351 107 sel 0 1 2 3;
#X obj 460 213 bng 15 250 50 0 empty empty empty 17 7 0 10 #fcfcfc
#000000 #000000 1;
#X obj 477 213 bng 15 250 50 0 empty empty empty 17 7 0 10 #fcfcfc
#000000 #000000 1;
#X obj 495 213 bng 15 250 50 0 empty empty empty 17 7 0 10 #fcfcfc
#000000 #000000 1;
#X obj 512 213 bng 15 250 50 0 empty empty empty 17 7 0 10 #fcfcfc
#000000 #000000 1;
#X obj 530 213 bng 15 250 50 0 empty empty empty 17 7 0 10 #fcfcfc
#000000 #000000 1;
#X msg 512 256 74;
#X obj 460 287 f;
#X obj 460 189 sel 0 1 2 3 4;
#X msg 460 231 58;
#X msg 495 232 65;
#X msg 477 256 62;
#X msg 530 232 46;
#X obj 569 213 bng 15 250 50 0 empty empty empty 17 7 0 10 #fcfcfc
#000000 #000000 1;
#X obj 586 213 bng 15 250 50 0 empty empty empty 17 7 0 10 #fcfcfc
#000000 #000000 1;
#X obj 604 213 bng 15 250 50 0 empty empty empty 17 7 0 10 #fcfcfc
#000000 #000000 1;
#X obj 621 213 bng 15 250 50 0 empty empty empty 17 7 0 10 #fcfcfc
#000000 #000000 1;
#X obj 639 213 bng 15 250 50 0 empty empty empty 17 7 0 10 #fcfcfc
#000000 #000000 1;
#X obj 569 287 f;
#X obj 569 189 sel 0 1 2 3 4;
#X msg 569 231 61;
#X msg 586 256 65;
#X msg 604 232 68;
#X msg 621 256 77;
#X msg 639 232 49;
#X obj 679 212 bng 15 250 50 0 empty empty empty 17 7 0 10 #fcfcfc
#000000 #000000 1;
#X obj 696 212 bng 15 250 50 0 empty empty empty 17 7 0 10 #fcfcfc
#000000 #000000 1;
#X obj 714 212 bng 15 250 50 0 empty empty empty 17 7 0 10 #fcfcfc
#000000 #000000 1;
#X obj 731 212 bng 15 250 50 0 empty empty empty 17 7 0 10 #fcfcfc
#000000 #000000 1;
#X obj 749 212 bng 15 250 50 0 empty empty empty 17 7 0 10 #fcfcfc
#000000 #000000 1;
#X obj 679 286 f;
#X obj 679 188 sel 0 1 2 3 4;
#X msg 679 230 60;
#X msg 696 255 64;
#X msg 714 231 67;
#X msg 731 255 76;
#X msg 749 231 48;
#X obj 351 166 random 7;
#X obj 460 165 random 7;
#X obj 569 165 random 7;
#X obj 679 164 random 7;
#X obj 42 281 bng 15 250 50 0 empty empty empty 17 7 0 10 #fcfcfc #000000
#000000 1;
#X obj 166 282 bng 15 250 50 0 empty empty empty 17 7 0 10 #fcfcfc
#000000 #000000 1;
#X obj 42 235 > 60;
#X obj 166 236 > 50;
#X obj 17 442 *~;
#X obj 35 373 vsl 10 64 0 1 0 0 empty empty empty 0 -9 0 10 #fcfcfc
#000000 #000000 0 1 0 1;
#X obj 18 465 dac~;
#X obj 17 324 catch~ \$0-perc;
#X obj 35 348 r \$0-perc-vol;
#X obj 67 158 r \$0-perc-complex;
#X obj 67 182 * -50;
#X obj 67 205 + 100;
#X connect 0 0 1 0;
#X connect 1 0 2 0;
#X connect 1 0 7 0;
#X connect 2 0 4 0;
#X connect 2 1 3 0;
#X connect 3 0 8 0;
#X connect 4 0 77 0;
#X connect 5 0 75 0;
#X connect 7 0 5 0;
#X connect 8 0 4 0;
#X connect 9 0 10 0;
#X connect 10 0 11 0;
#X connect 11 0 13 0;
#X connect 11 1 12 0;
#X connect 12 0 16 0;
#X connect 13 0 78 0;
#X connect 14 0 76 0;
#X connect 16 0 13 0;
#X connect 17 0 22 0;
#X connect 18 0 23 0;
#X connect 19 0 24 0;
#X connect 20 0 25 0;
#X connect 21 0 26 0;
#X connect 22 0 27 0;
#X connect 23 0 27 0;
#X connect 24 0 27 0;
#X connect 25 0 27 0;
#X connect 26 0 27 0;
#X connect 27 0 31 0;
#X connect 28 0 17 0;
#X connect 28 1 18 0;
#X connect 28 2 19 0;
#X connect 28 3 20 0;
#X connect 28 4 21 0;
#X connect 28 5 21 0;
#X connect 29 0 30 0;
#X connect 30 0 32 0;
#X connect 32 0 33 0;
#X connect 33 0 34 0;
#X connect 34 0 71 0;
#X connect 34 1 72 0;
#X connect 34 2 73 0;
#X connect 34 3 74 0;
#X connect 35 0 43 0;
#X connect 36 0 45 0;
#X connect 37 0 44 0;
#X connect 38 0 40 0;
#X connect 39 0 46 0;
#X connect 40 0 41 0;
#X connect 41 0 31 0;
#X connect 42 0 35 0;
#X connect 42 1 36 0;
#X connect 42 2 37 0;
#X connect 42 3 38 0;
#X connect 42 4 39 0;
#X connect 42 5 39 0;
#X connect 43 0 41 0;
#X connect 44 0 41 0;
#X connect 45 0 41 0;
#X connect 46 0 41 0;
#X connect 47 0 54 0;
#X connect 48 0 55 0;
#X connect 49 0 56 0;
#X connect 50 0 57 0;
#X connect 51 0 58 0;
#X connect 52 0 31 0;
#X connect 53 0 47 0;
#X connect 53 1 48 0;
#X connect 53 2 49 0;
#X connect 53 3 50 0;
#X connect 53 4 51 0;
#X connect 53 5 51 0;
#X connect 54 0 52 0;
#X connect 55 0 52 0;
#X connect 56 0 52 0;
#X connect 57 0 52 0;
#X connect 58 0 52 0;
#X connect 59 0 66 0;
#X connect 60 0 67 0;
#X connect 61 0 68 0;
#X connect 62 0 69 0;
#X connect 63 0 70 0;
#X connect 64 0 31 0;
#X connect 65 0 59 0;
#X connect 65 1 60 0;
#X connect 65 2 61 0;
#X connect 65 3 62 0;
#X connect 65 4 63 0;
#X connect 65 5 63 0;
#X connect 66 0 64 0;
#X connect 67 0 64 0;
#X connect 68 0 64 0;
#X connect 69 0 64 0;
#X connect 70 0 64 0;
#X connect 71 0 28 0;
#X connect 72 0 42 0;
#X connect 73 0 53 0;
#X connect 74 0 65 0;
#X connect 75 0 6 0;
#X connect 76 0 15 0;
#X connect 77 0 5 0;
#X connect 78 0 14 0;
#X connect 79 0 81 0;
#X connect 79 0 81 1;
#X connect 80 0 79 1;
#X connect 82 0 79 0;
#X connect 83 0 80 0;
#X connect 84 0 85 0;
#X connect 85 0 86 0;
#X connect 86 0 77 1;
#X connect 86 0 78 1;
#X restore 15 458 pd sequences;
#X msg 188 430 100;
#X obj 309 104 unpack f f f;
#X floatatom 309 126 5 0 0 0 - - - 0 0 1, f 5;
#X floatatom 362 126 5 0 0 0 - - - 0 0 1, f 5;
#X obj 452 105 unpack f f f;
#X floatatom 452 127 5 0 0 0 - - - 0 0 1, f 5;
#X floatatom 505 127 5 0 0 0 - - - 0 0 1, f 5;
#X obj 309 59 r \$0-oscmsgs;
#X obj 309 81 route /right_wrist;
#X obj 452 81 route /right_shoulder;
#X obj 157 59 r \$0-oscmsgs;
#X obj 452 59 r \$0-oscmsgs;
#X obj 14 149 s \$0-lwx;
#X obj 67 172 s \$0-lwy;
#X obj 157 149 s \$0-lsx;
#X obj 210 172 s \$0-lsy;
#X obj 309 149 s \$0-rwx;
#X obj 362 172 s \$0-rwy;
#X obj 452 149 s \$0-rsx;
#X obj 505 172 s \$0-rsy;
#N canvas 114 117 1218 691 interactions 0;
#X obj 39 45 r \$0-lwx;
#X obj 57 68 r \$0-rwx;
#X obj 57 90 t b f;
#X obj 39 117 -;
#X obj 140 90 t b f;
#X obj 122 117 -;
#X obj 122 45 r \$0-lwy;
#X obj 140 68 r \$0-rwy;
#X obj 39 184 tgl 15 0 empty empty empty 17 7 0 10 #fcfcfc #000000
#000000 0 1 1;
#X obj 122 184 tgl 15 0 empty empty empty 17 7 0 10 #fcfcfc #000000
#000000 0 1 1;
#X obj 39 203 &&;
#X obj 39 225 tgl 15 0 empty empty empty 17 7 0 10 #fcfcfc #000000
#000000 0 1 1;
#X obj 39 139 abs;
#X obj 122 139 abs;
#X obj 39 329 s \$0-start;
#X obj 39 265 change;
#X obj 39 243 != 1;
#X text 38 10 Parar la musica si las munecas estan en el mismo lugar
;
#X obj 315 116 >;
#X obj 315 140 tgl 15 0 empty empty empty 17 7 0 10 #fcfcfc #000000
#000000 0 1 1;
#X obj 315 45 r \$0-lwx;
#X obj 323 69 r \$0-lsx;
#X obj 122 162 < 0.08;
#X obj 39 162 < 0.06;
#X obj 416 140 tgl 15 0 empty empty empty 17 7 0 10 #fcfcfc #000000
#000000 1 1 1;
#X obj 416 45 r \$0-rwx;
#X obj 424 69 r \$0-rsx;
#X obj 315 224 s \$0-l-acting;
#X obj 416 224 s \$0-r-acting;
#X obj 516 46 r \$0-lsx;
#X obj 534 68 r \$0-rsx;
#X obj 534 90 t b f;
#X obj 424 92 t b f;
#X obj 323 91 t b f;
#X obj 516 114 +;
#X obj 516 136 / 2;
#X obj 516 225 s \$0-center;
#X text 315 9 utilidades para detectar intencion de accion y ubicacion
del usuario;
#X obj 607 65 r \$0-center;
#X obj 607 89 > 0.5;
#X obj 315 178 change;
#X obj 607 231 s \$0-perc-control;
#X obj 607 111 tgl 15 0 empty empty empty 17 7 0 10 #fcfcfc #000000
#000000 1 1 1;
#X obj 618 178 != 1;
#X obj 618 201 s \$0-synth-control;
#X obj 208 374 r \$0-lwy;
#X obj 247 396 r \$0-perc-control;
#X obj 208 489 spigot;
#X obj 247 467 &&;
#X obj 263 443 t b f;
#X obj 263 421 r \$0-l-acting;
#X floatatom 208 513 5 0 0 0 - - - 0 0 1, f 5;
#X obj 208 535 expr 1-$f1;
#X obj 208 558 clip 0 1;
#X floatatom 208 580 5 0 0 0 - - - 0 0 1, f 5;
#X obj 41 490 spigot;
#X floatatom 41 514 5 0 0 0 - - - 0 0 1, f 5;
#X obj 41 536 expr 1-$f1;
#X obj 41 559 clip 0 1;
#X floatatom 41 581 5 0 0 0 - - - 0 0 1, f 5;
#X obj 41 375 r \$0-rwy;
#X obj 80 397 r \$0-perc-control;
#X obj 80 468 &&;
#X obj 96 444 t b f;
#X obj 96 422 r \$0-r-acting;
#X obj 416 116 <;
#X obj 41 602 s \$0-perc-vol;
#X obj 574 373 r \$0-lwy;
#X obj 574 488 spigot;
#X obj 613 466 &&;
#X obj 629 442 t b f;
#X obj 629 420 r \$0-l-acting;
#X floatatom 574 512 5 0 0 0 - - - 0 0 1, f 5;
#X obj 574 534 expr 1-$f1;
#X obj 574 557 clip 0 1;
#X floatatom 574 579 5 0 0 0 - - - 0 0 1, f 5;
#X obj 407 489 spigot;
#X floatatom 407 513 5 0 0 0 - - - 0 0 1, f 5;
#X obj 407 535 expr 1-$f1;
#X obj 407 558 clip 0 1;
#X floatatom 407 580 5 0 0 0 - - - 0 0 1, f 5;
#X obj 407 374 r \$0-rwy;
#X obj 446 467 &&;
#X obj 462 443 t b f;
#X obj 462 421 r \$0-r-acting;
#X obj 446 396 r \$0-synth-control;
#X obj 613 395 r \$0-synth-control;
#X obj 574 600 s \$0-synth-dist;
#N canvas 0 50 450 353 wait 0;
#X obj 11 10 inlet;
#X obj 22 56 change;
#X obj 15 241 outlet;
#X obj 15 194 change;
#X obj 11 34 tgl 15 0 empty empty empty 17 7 0 10 #fcfcfc #000000 #000000
0 1 1;
#X obj 15 172 f;
#X obj 22 78 t b b;
#X obj 54 152 bng 15 250 50 0 empty empty empty 17 7 0 10 #fcfcfc #000000
#000000 1;
#X msg 54 101 stop;
#X obj 15 216 tgl 15 0 empty empty empty 17 7 0 10 #fcfcfc #000000
#000000 0 1 1;
#X obj 54 131 del;
#X obj 96 102 inlet;
#X floatatom 96 124 5 0 0 0 - - - 0 0 1, f 5;
#X connect 0 0 4 0;
#X connect 1 0 6 0;
#X connect 3 0 9 0;
#X connect 4 0 1 0;
#X connect 4 0 5 1;
#X connect 5 0 3 0;
#X connect 6 0 10 0;
#X connect 6 1 8 0;
#X connect 7 0 5 0;
#X connect 8 0 10 0;
#X connect 9 0 2 0;
#X connect 10 0 7 0;
#X connect 11 0 12 0;
#X connect 12 0 10 1;
#X restore 315 201 pd wait;
#X obj 416 178 change;
#N canvas 0 50 450 353 wait 0;
#X obj 11 10 inlet;
#X obj 22 56 change;
#X obj 15 241 outlet;
#X obj 15 194 change;
#X obj 11 34 tgl 15 0 empty empty empty 17 7 0 10 #fcfcfc #000000 #000000
1 1 1;
#X obj 15 172 f;
#X obj 22 78 t b b;
#X obj 54 152 bng 15 250 50 0 empty empty empty 17 7 0 10 #fcfcfc #000000
#000000 1;
#X msg 54 101 stop;
#X obj 15 216 tgl 15 0 empty empty empty 17 7 0 10 #fcfcfc #000000
#000000 1 1 1;
#X obj 54 131 del;
#X obj 96 102 inlet;
#X floatatom 96 124 5 0 0 0 - - - 0 0 1, f 5;
#X connect 0 0 4 0;
#X connect 1 0 6 0;
#X connect 3 0 9 0;
#X connect 4 0 1 0;
#X connect 4 0 5 1;
#X connect 5 0 3 0;
#X connect 6 0 10 0;
#X connect 6 1 8 0;
#X connect 7 0 5 0;
#X connect 8 0 10 0;
#X connect 9 0 2 0;
#X connect 10 0 7 0;
#X connect 11 0 12 0;
#X connect 12 0 10 1;
#X restore 416 201 pd wait;
#X obj 607 131 change;
#N canvas 0 50 450 353 wait 0;
#X obj 11 10 inlet;
#X obj 22 56 change;
#X obj 15 241 outlet;
#X obj 15 194 change;
#X obj 11 34 tgl 15 0 empty empty empty 17 7 0 10 #fcfcfc #000000 #000000
1 1 1;
#X obj 15 172 f;
#X obj 22 78 t b b;
#X obj 54 152 bng 15 250 50 0 empty empty empty 17 7 0 10 #fcfcfc #000000
#000000 1;
#X msg 54 101 stop;
#X obj 15 216 tgl 15 0 empty empty empty 17 7 0 10 #fcfcfc #000000
#000000 1 1 1;
#X obj 54 131 del;
#X obj 96 102 inlet;
#X floatatom 96 124 5 0 0 0 - - - 0 0 1, f 5;
#X connect 0 0 4 0;
#X connect 1 0 6 0;
#X connect 3 0 9 0;
#X connect 4 0 1 0;
#X connect 4 0 5 1;
#X connect 5 0 3 0;
#X connect 6 0 10 0;
#X connect 6 1 8 0;
#X connect 7 0 5 0;
#X connect 8 0 10 0;
#X connect 9 0 2 0;
#X connect 10 0 7 0;
#X connect 11 0 12 0;
#X connect 12 0 10 1;
#X restore 607 154 pd wait;
#X obj 361 178 r \$0-w;
#X obj 462 178 r \$0-w;
#X obj 653 131 r \$0-w;
#X obj 975 74 loadbang;
#X obj 975 118 s \$0-w;
#N canvas 167 36 1079 615 wait 0;
#X obj 11 10 inlet;
#X obj 22 56 change;
#X obj 15 241 outlet;
#X obj 15 194 change;
#X obj 11 34 tgl 15 0 empty empty empty 17 7 0 10 #fcfcfc #000000 #000000
0 1 1;
#X obj 15 172 f;
#X obj 22 78 t b b;
#X obj 54 152 bng 15 250 50 0 empty empty empty 17 7 0 10 #fcfcfc #000000
#000000 1;
#X msg 54 101 stop;
#X obj 15 216 tgl 15 0 empty empty empty 17 7 0 10 #fcfcfc #000000
#000000 0 1 1;
#X obj 54 131 del;
#X obj 96 102 inlet;
#X floatatom 96 124 5 0 0 0 - - - 0 0 1, f 5;
#X connect 0 0 4 0;
#X connect 1 0 6 0;
#X connect 3 0 9 0;
#X connect 4 0 1 0;
#X connect 4 0 5 1;
#X connect 5 0 3 0;
#X connect 6 0 10 0;
#X connect 6 1 8 0;
#X connect 7 0 5 0;
#X connect 8 0 10 0;
#X connect 9 0 2 0;
#X connect 10 0 7 0;
#X connect 11 0 12 0;
#X connect 12 0 10 1;
#X restore 39 287 pd wait;
#X obj 85 265 r \$0-w;
#X obj 94 310 bng 15 250 50 0 empty empty empty 17 7 0 10 #fcfcfc #000000
#000000 1;
#X msg 975 96 200;
#X obj 208 601 s \$0-synth-vol;
#X obj 407 600 s \$0-perc-complex;
#X connect 0 0 3 0;
#X connect 1 0 2 0;
#X connect 2 0 3 0;
#X connect 2 1 3 1;
#X connect 3 0 12 0;
#X connect 4 0 5 0;
#X connect 4 1 5 1;
#X connect 5 0 13 0;
#X connect 6 0 5 0;
#X connect 7 0 4 0;
#X connect 8 0 10 0;
#X connect 9 0 10 1;
#X connect 10 0 11 0;
#X connect 11 0 16 0;
#X connect 12 0 23 0;
#X connect 13 0 22 0;
#X connect 15 0 98 0;
#X connect 16 0 15 0;
#X connect 18 0 19 0;
#X connect 19 0 40 0;
#X connect 20 0 18 0;
#X connect 21 0 33 0;
#X connect 22 0 9 0;
#X connect 23 0 8 0;
#X connect 24 0 89 0;
#X connect 25 0 65 0;
#X connect 26 0 32 0;
#X connect 29 0 34 0;
#X connect 30 0 31 0;
#X connect 31 0 34 0;
#X connect 31 1 34 1;
#X connect 32 0 65 0;
#X connect 32 1 65 1;
#X connect 33 0 18 0;
#X connect 33 1 18 1;
#X connect 34 0 35 0;
#X connect 35 0 36 0;
#X connect 38 0 39 0;
#X connect 39 0 42 0;
#X connect 40 0 88 0;
#X connect 42 0 91 0;
#X connect 43 0 44 0;
#X connect 45 0 47 0;
#X connect 46 0 48 0;
#X connect 47 0 51 0;
#X connect 48 0 47 1;
#X connect 49 0 48 0;
#X connect 49 1 48 1;
#X connect 50 0 49 0;
#X connect 51 0 52 0;
#X connect 52 0 53 0;
#X connect 53 0 54 0;
#X connect 54 0 102 0;
#X connect 55 0 56 0;
#X connect 56 0 57 0;
#X connect 57 0 58 0;
#X connect 58 0 59 0;
#X connect 59 0 66 0;
#X connect 60 0 55 0;
#X connect 61 0 62 0;
#X connect 62 0 55 1;
#X connect 63 0 62 0;
#X connect 63 1 62 1;
#X connect 64 0 63 0;
#X connect 65 0 24 0;
#X connect 67 0 68 0;
#X connect 68 0 72 0;
#X connect 69 0 68 1;
#X connect 70 0 69 0;
#X connect 70 1 69 1;
#X connect 71 0 70 0;
#X connect 72 0 73 0;
#X connect 73 0 74 0;
#X connect 74 0 75 0;
#X connect 75 0 87 0;
#X connect 76 0 77 0;
#X connect 77 0 78 0;
#X connect 78 0 79 0;
#X connect 79 0 80 0;
#X connect 80 0 103 0;
#X connect 81 0 76 0;
#X connect 82 0 76 1;
#X connect 83 0 82 0;
#X connect 83 1 82 1;
#X connect 84 0 83 0;
#X connect 85 0 82 0;
#X connect 86 0 69 0;
#X connect 88 0 27 0;
#X connect 89 0 90 0;
#X connect 90 0 28 0;
#X connect 91 0 92 0;
#X connect 92 0 43 0;
#X connect 92 0 41 0;
#X connect 93 0 88 1;
#X connect 94 0 90 1;
#X connect 95 0 92 1;
#X connect 96 0 101 0;
#X connect 98 0 14 0;
#X connect 98 0 100 0;
#X connect 99 0 98 1;
#X connect 101 0 97 0;
#X restore 13 249 pd interactions;
#X obj 135 342 r \$0-start;
#X obj 155 365 tgl 15 0 empty empty empty 17 7 0 10 #fcfcfc #000000
#000000 0 1 1;
#X obj 135 408 &&;
#X obj 145 385 t b f;
#X obj 135 430 change;
#X text 173 363 manual override;
#X msg 238 548 0.8;
#X obj 272 549 loadbang;
#X connect 0 0 18 0;
#X connect 1 0 2 0;
#X connect 1 1 3 0;
#X connect 2 0 37 0;
#X connect 3 0 38 0;
#X connect 4 0 1 0;
#X connect 5 0 6 0;
#X connect 6 0 7 0;
#X connect 6 1 8 0;
#X connect 7 0 39 0;
#X connect 8 0 40 0;
#X connect 10 0 11 0;
#X connect 11 0 13 0;
#X connect 11 0 13 1;
#X connect 12 0 11 1;
#X connect 15 0 20 0;
#X connect 16 0 48 0;
#X connect 17 0 25 0;
#X connect 19 0 4 0;
#X connect 25 0 15 1;
#X connect 26 0 27 0;
#X connect 26 1 28 0;
#X connect 27 0 41 0;
#X connect 28 0 42 0;
#X connect 29 0 30 0;
#X connect 29 1 31 0;
#X connect 30 0 43 0;
#X connect 31 0 44 0;
#X connect 32 0 33 0;
#X connect 33 0 26 0;
#X connect 34 0 29 0;
#X connect 35 0 5 0;
#X connect 36 0 34 0;
#X connect 46 0 16 0;
#X connect 47 0 49 0;
#X connect 48 0 50 0;
#X connect 49 0 48 0;
#X connect 49 1 48 1;
#X connect 50 0 15 0;
#X connect 52 0 12 0;
#X connect 53 0 52 0;
